<svg width="79" height="26" viewBox="0 0 79 26" fill="none" xmlns="http://www.w3.org/2000/svg">
<path d="M7.856 25.4C6.84267 25.4 5.86667 25.2827 4.928 25.048C3.98933 24.8133 3.14933 24.4667 2.408 24.008C1.66667 23.5493 1.08 22.976 0.648 22.288C0.216 21.6 0 20.7973 0 19.88C0 19.8373 0 19.7867 0 19.728C0 19.6693 0 19.624 0 19.592H4.928C4.928 19.624 4.928 19.6587 4.928 19.696C4.928 19.7333 4.928 19.7733 4.928 19.816C4.928 20.4347 5.20267 20.888 5.752 21.176C6.30133 21.464 7.04533 21.608 7.984 21.608C8.47467 21.608 8.94667 21.5573 9.4 21.456C9.85333 21.3547 10.2267 21.1893 10.52 20.96C10.8133 20.7307 10.96 20.44 10.96 20.088C10.96 19.5227 10.648 19.1227 10.024 18.888C9.4 18.6533 8.4 18.4187 7.024 18.184C6.24533 18.056 5.456 17.8747 4.656 17.64C3.856 17.4053 3.12 17.0933 2.448 16.704C1.776 16.3147 1.23733 15.8187 0.832 15.216C0.426667 14.6133 0.224 13.88 0.224 13.016C0.224 11.864 0.573333 10.8933 1.272 10.104C1.97067 9.31466 2.90133 8.71733 4.064 8.31199C5.22667 7.90666 6.50667 7.70399 7.904 7.70399C9.23733 7.70399 10.48 7.92533 11.632 8.36799C12.784 8.81066 13.7173 9.44533 14.432 10.272C15.1467 11.0987 15.504 12.0933 15.504 13.256C15.504 13.2773 15.504 13.3093 15.504 13.352C15.504 13.3947 15.504 13.4373 15.504 13.48H10.624C10.624 13.4373 10.624 13.4 10.624 13.368C10.624 13.336 10.624 13.3093 10.624 13.288C10.624 12.8613 10.488 12.5147 10.216 12.248C9.944 11.9813 9.6 11.7813 9.184 11.648C8.768 11.5147 8.336 11.448 7.888 11.448C7.48267 11.448 7.064 11.4933 6.632 11.584C6.2 11.6747 5.83467 11.824 5.536 12.032C5.23733 12.24 5.088 12.5307 5.088 12.904C5.088 13.2667 5.248 13.5627 5.568 13.792C5.888 14.0213 6.336 14.208 6.912 14.352C7.488 14.496 8.15467 14.632 8.912 14.76C9.62667 14.8773 10.3813 15.04 11.176 15.248C11.9707 15.456 12.7173 15.7493 13.416 16.128C14.1147 16.5067 14.68 17.0027 15.112 17.616C15.544 18.2293 15.76 19.0053 15.76 19.944C15.76 20.9147 15.536 21.7467 15.088 22.44C14.64 23.1333 14.0347 23.696 13.272 24.128C12.5093 24.56 11.6613 24.88 10.728 25.088C9.79467 25.296 8.83733 25.4 7.856 25.4Z" fill="#172339"/>
<path fill-rule="evenodd" clip-rule="evenodd" d="M21.4595 24.752C22.2382 25.1413 23.2302 25.336 24.4355 25.336C25.5129 25.336 26.4809 25.144 27.3395 24.76C28.1982 24.376 28.9262 23.84 29.5235 23.152C29.6947 22.9549 29.8547 22.7483 30.0035 22.5323V25.016H34.9636V8.024H30.0035V16.632C30.0035 17.368 29.8595 18.0827 29.5715 18.776C29.2835 19.4693 28.8675 20.0373 28.3235 20.48C27.7795 20.9227 27.1182 21.144 26.3395 21.144C25.5395 21.144 24.9235 20.9627 24.4915 20.6C24.0595 20.2373 23.7635 19.7573 23.6035 19.16C23.4435 18.5627 23.3635 17.9067 23.3635 17.192V16.248V15.192V8.024H18.4035V15.976V17.288V18.504C18.4035 19.336 18.4942 20.1573 18.6755 20.968C18.8569 21.7787 19.1715 22.5147 19.6195 23.176C20.0675 23.8373 20.6809 24.3627 21.4595 24.752ZM30.0035 16.632V22.5323C30.3741 21.9946 30.6754 21.3985 30.9075 20.744C31.2329 19.8267 31.3955 18.8347 31.3955 17.768L30.0035 16.632Z" fill="#172339"/>
<path fill-rule="evenodd" clip-rule="evenodd" d="M38.4791 4.648C39.0498 5.05333 39.7191 5.256 40.4871 5.256C41.2658 5.256 41.9404 5.056 42.5111 4.656C43.0818 4.256 43.3671 3.68267 43.3671 2.936C43.3671 2.18933 43.0818 1.61333 42.5111 1.208C41.9404 0.802665 41.2658 0.599998 40.4871 0.599998C39.7191 0.599998 39.0498 0.802665 38.4791 1.208C37.9084 1.61333 37.6231 2.18933 37.6231 2.936C37.6231 3.672 37.9084 4.24267 38.4791 4.648ZM38.0391 8.024V25.016H42.9511V8.024H38.0391Z" fill="#172339"/>
<path d="M54.5227 25.368C53.872 25.368 53.2027 25.312 52.5147 25.2C51.8267 25.088 51.1867 24.864 50.5947 24.528C50.0027 24.192 49.5253 23.6987 49.1627 23.048C48.8 22.3973 48.6187 21.5387 48.6187 20.472C48.6187 20.2373 48.6187 19.9973 48.6187 19.752C48.6187 19.5067 48.6187 19.2613 48.6187 19.016V11.864H44.6987V8.024H45.8027C46.4427 8.024 46.952 7.99733 47.3307 7.944C47.7093 7.89066 47.992 7.75466 48.1787 7.536C48.3653 7.31733 48.4853 6.97333 48.5387 6.504C48.592 6.03466 48.6187 5.38933 48.6187 4.568V2.424H53.5947V8.024H58.5387V11.864H53.5947V17.976C53.5947 18.168 53.5947 18.3547 53.5947 18.536C53.5947 18.7173 53.5947 18.8933 53.5947 19.064C53.5947 19.8 53.6827 20.3973 53.8587 20.856C54.0347 21.3147 54.4747 21.544 55.1787 21.544C55.5307 21.544 55.864 21.512 56.1787 21.448C56.4933 21.384 56.7307 21.32 56.8907 21.256V24.984C56.6667 25.08 56.352 25.168 55.9467 25.248C55.5413 25.328 55.0667 25.368 54.5227 25.368Z" fill="#172339"/>
<path d="M62.5742 18.008V14.728H73.8382L73.3582 15.56C73.3582 15.4747 73.3582 15.392 73.3582 15.312C73.3582 15.232 73.3582 15.1547 73.3582 15.08C73.3582 14.472 73.2142 13.888 72.9262 13.328C72.6382 12.768 72.1929 12.3093 71.5902 11.952C70.9876 11.5947 70.2169 11.416 69.2782 11.416C68.3396 11.416 67.5316 11.616 66.8542 12.016C66.1769 12.416 65.6596 12.9893 65.3022 13.736C64.9449 14.4827 64.7662 15.384 64.7662 16.44C64.7662 17.528 64.9396 18.4587 65.2862 19.232C65.6329 20.0053 66.1502 20.6 66.8382 21.016C67.5262 21.432 68.3822 21.64 69.4062 21.64C70.0676 21.64 70.6382 21.5787 71.1182 21.456C71.5982 21.3333 71.9902 21.176 72.2942 20.984C72.5982 20.792 72.8302 20.5787 72.9902 20.344C73.1502 20.1093 73.2462 19.88 73.2782 19.656H78.1742C78.1102 20.3707 77.8649 21.072 77.4382 21.76C77.0116 22.448 76.4196 23.0667 75.6622 23.616C74.9049 24.1653 73.9849 24.6 72.9022 24.92C71.8196 25.24 70.5849 25.4 69.1982 25.4C67.3209 25.4 65.6836 25.024 64.2862 24.272C62.8889 23.52 61.8062 22.48 61.0382 21.152C60.2702 19.824 59.8862 18.2907 59.8862 16.552C59.8862 14.792 60.2782 13.248 61.0622 11.92C61.8462 10.592 62.9396 9.55733 64.3422 8.81599C65.7449 8.07466 67.3689 7.70399 69.2142 7.70399C71.1022 7.70399 72.7342 8.07999 74.1102 8.83199C75.4862 9.58399 76.5476 10.6347 77.2942 11.984C78.0409 13.3333 78.4142 14.904 78.4142 16.696C78.4142 16.9627 78.4089 17.2187 78.3982 17.464C78.3876 17.7093 78.3716 17.8907 78.3502 18.008H62.5742Z" fill="#172339"/>
</svg>
